<svg data-v-423bf9ae="" xmlns="http://www.w3.org/2000/svg" viewBox="0 0 259.06816596480746 60" class="font"><!----><!----><!----><g data-v-423bf9ae="" id="62d81ae1-bb4f-4913-b599-e70e07cc28d7" fill="black" transform="matrix(4.172461995943634,0,0,4.172461995943634,-0.8762166997778991,-3.045897813459412)"><path d="M10.36 10.95L10.36 10.95L10.36 10.95Q10.36 11.34 9.48 12.11L9.48 12.11L9.48 12.11Q8.68 12.80 8.44 12.85L8.44 12.85L8.44 12.85Q8.19 12.31 7.42 12.31L7.42 12.31L7.42 12.31Q7.08 12.31 6.40 12.46L6.40 12.46L5.85 12.40L5.85 12.40Q6.17 11.86 6.65 11.24L6.65 11.24L6.65 11.24Q7.03 10.74 7.14 10.50L7.14 10.50L7.14 10.50Q7.31 10.12 7.31 9.53L7.31 9.53L7.31 9.53Q7.31 8.64 6.79 7.67L6.79 7.67L6.79 7.67Q6.13 6.41 5.05 6.41L5.05 6.41L5.05 6.41Q4.79 6.41 3.85 7.34L3.85 7.34L3.85 8.92L3.85 8.92Q3.85 8.96 3.81 9.01L3.81 9.01L3.81 9.01Q3.78 9.06 3.78 9.10L3.78 9.10L3.78 10.35L3.78 10.35Q3.78 10.35 4.21 10.67L4.21 10.67L4.21 10.67Q4.55 10.92 4.55 11.02L4.55 11.02L4.55 11.02Q4.55 11.41 3.67 12.18L3.67 12.18L3.67 12.18Q2.88 12.87 2.62 12.92L2.62 12.92L2.62 12.92Q2.53 12.82 1.79 12.25L1.79 12.25L1.79 10.78L1.79 10.78Q1.79 10.72 1.83 10.70L1.83 10.70L1.83 10.70Q1.88 10.67 1.88 10.61L1.88 10.61L1.88 8.46L1.88 8.46Q1.88 8.41 1.83 8.34L1.83 8.34L1.83 8.34Q1.79 8.26 1.79 8.20L1.79 8.20L1.79 4.07L1.79 4.07Q1.57 3.79 0.97 3.28L0.97 3.28L0.97 3.28Q0.81 3.36 0.66 3.46L0.66 3.46L0.66 3.46Q0.45 3.58 0.21 3.61L0.21 3.61L0.21 3.42L0.21 3.42Q0.21 3.08 1.34 2.11L1.34 2.11L1.34 2.11Q2.44 1.18 2.67 1.18L2.67 1.18L2.67 1.18Q2.79 1.18 3.28 1.66L3.28 1.66L3.28 1.66Q3.77 2.14 3.78 2.24L3.78 2.24L3.84 6.57L3.84 6.57Q5.99 4.44 6.82 4.44L6.82 4.44L6.82 4.44Q7.99 4.44 8.71 5.73L8.71 5.73L8.71 5.73Q9.28 6.73 9.28 7.74L9.28 7.74L9.28 7.74Q9.28 9.07 8.27 10.37L8.27 10.37L8.27 10.37Q8.46 10.37 8.81 10.35L8.81 10.35L8.81 10.35Q9.16 10.33 9.17 10.33L9.17 10.33L9.17 10.33Q9.51 10.33 9.84 10.43L9.84 10.43L9.84 10.43Q10.36 10.60 10.36 10.95ZM21.04 10.37L21.22 10.37L21.22 10.37Q21.28 10.79 20.25 11.80L20.25 11.80L20.25 11.80Q19.22 12.81 18.87 12.81L18.87 12.81L18.87 12.81Q18.77 12.81 18.17 12.24L18.17 12.24L18.17 12.24Q17.57 11.68 17.64 11.45L17.64 11.45L17.61 10.49L17.61 10.49Q15.96 11.86 15.61 12.08L15.61 12.08L15.61 12.08Q14.83 12.57 13.86 12.57L13.86 12.57L13.86 12.57Q12.89 12.57 12.18 12.05L12.18 12.05L12.18 12.05Q11.35 11.47 11.35 10.43L11.35 10.43L11.35 10.43Q11.35 8.65 13.31 6.38L13.31 6.38L13.31 6.38Q13.27 6.34 13.16 6.34L13.16 6.34L13.16 6.34Q13.06 6.34 12.84 6.40L12.84 6.40L12.84 6.40Q12.61 6.45 12.57 6.45L12.57 6.45L12.57 6.45Q12.39 6.45 12.25 6.31L12.25 6.31L12.25 6.31Q12.29 6.08 13.05 5.22L13.05 5.22L13.05 5.22Q13.86 4.28 14.22 4.28L14.22 4.28L14.22 4.28Q14.28 4.28 14.34 4.33L14.34 4.33L14.34 4.33Q14.39 4.37 14.43 4.37L14.43 4.37L14.43 4.37Q14.49 4.37 14.58 4.33L14.58 4.33L14.58 4.33Q14.67 4.28 14.73 4.30L14.73 4.30L15.95 4.30L15.95 4.30Q16.00 4.34 16.00 4.44L16.00 4.44L16.00 4.44Q16.00 4.75 15.34 5.35L15.34 5.35L15.34 5.35Q14.42 6.20 14.10 6.62L14.10 6.62L14.10 6.62Q13.44 7.53 13.44 8.55L13.44 8.55L13.44 8.55Q13.44 9.48 14.17 10.01L14.17 10.01L14.17 10.01Q14.81 10.49 15.74 10.49L15.74 10.49L15.74 10.49Q16.73 10.49 17.64 9.60L17.64 9.60L17.64 7.78L17.64 7.78Q17.64 7.74 17.60 7.64L17.60 7.64L17.60 7.64Q17.56 7.55 17.56 7.49L17.56 7.49L17.56 6.40L17.56 6.40Q17.46 6.34 16.49 5.91L16.49 5.91L16.49 5.70L16.49 5.70Q16.49 5.47 17.35 4.63L17.35 4.63L17.35 4.63Q18.21 3.79 18.45 3.79L18.45 3.79L18.45 3.79Q18.58 3.79 19.63 4.38L19.63 4.38L19.63 5.54L19.63 5.54Q19.63 5.59 19.67 5.66L19.67 5.66L19.67 5.66Q19.71 5.73 19.71 5.77L19.71 5.77L19.71 9.73L19.71 9.73Q19.87 9.84 20.26 10.23L20.26 10.23L20.26 10.23Q20.58 10.57 20.64 10.57L20.64 10.57L20.64 10.57Q20.68 10.57 20.83 10.48L20.83 10.48L20.83 10.48Q20.99 10.39 21.04 10.37L21.04 10.37ZM32.12 10.02L32.12 10.02L32.12 10.02Q31.07 11.62 30.07 12.25L30.07 12.25L30.07 12.25Q29.16 12.84 27.87 12.84L27.87 12.84L27.87 12.84Q26.74 12.84 25.42 12.47L25.42 12.47L25.42 12.47Q24.09 12.10 23.53 12.10L23.53 12.10L23.53 12.10Q22.86 12.10 21.81 12.50L21.81 12.50L21.81 12.50Q21.76 12.46 21.76 12.36L21.76 12.36L21.76 12.36Q21.76 11.80 23.02 10.63L23.02 10.63L23.02 10.63Q23.80 9.91 25.62 8.50L25.62 8.50L25.62 8.50Q27.33 7.17 27.73 6.76L27.73 6.76L27.73 6.76Q27.55 6.76 27.23 6.78L27.23 6.78L27.23 6.78Q26.87 6.78 26.88 6.78L26.88 6.78L26.88 6.78Q25.70 6.78 24.44 6.24L24.44 6.24L24.44 6.24Q23.69 6.78 23.48 6.78L23.48 6.78L23.48 6.78Q23.27 6.78 23.27 6.61L23.27 6.61L23.27 6.61Q23.27 6.17 24.54 5.08L24.54 5.08L24.54 5.08Q25.77 4.03 26.10 4.03L26.10 4.03L26.10 4.03Q25.98 4.03 26.89 4.36L26.89 4.36L26.89 4.36Q27.79 4.69 28.77 4.69L28.77 4.69L28.77 4.69Q29.40 4.69 30.17 4.47L30.17 4.47L30.17 4.47Q30.81 4.27 31.46 4.09L31.46 4.09L31.46 4.09Q31.46 4.26 31.26 4.61L31.26 4.61L31.26 4.61Q31.05 4.96 30.86 5.14L30.86 5.14L30.86 5.14Q29.83 6.05 27.99 7.53L27.99 7.53L27.99 7.53Q26.45 8.76 24.91 10.00L24.91 10.00L24.91 10.00Q24.92 10.01 25.96 10.01L25.96 10.01L25.96 10.01Q26.89 10.25 27.85 10.49L27.85 10.49L27.85 10.49Q28.94 10.75 29.78 10.75L29.78 10.75L29.78 10.75Q30.55 10.75 30.93 10.57L30.93 10.57L30.93 10.57Q31.92 10.09 32.12 10.02ZM41.68 10.44L41.68 10.44L41.68 10.44Q41.57 10.77 40.75 11.68L40.75 11.68L40.75 11.68Q39.87 12.68 39.47 12.68L39.47 12.68L39.47 12.68Q39.41 12.68 38.79 12.11L38.79 12.11L38.79 12.11Q38.14 11.51 38.11 11.28L38.11 11.28L38.11 11.28Q37.74 11.76 36.83 12.22L36.83 12.22L36.83 12.22Q35.92 12.68 35.41 12.68L35.41 12.68L35.41 12.68Q34.52 12.68 33.92 11.89L33.92 11.89L33.92 11.89Q33.40 11.20 33.40 10.46L33.40 10.46L33.40 10.46Q33.40 8.64 35.04 6.72L35.04 6.72L35.04 6.72Q36.50 5.01 37.80 4.65L37.80 4.65L37.80 4.65Q37.84 4.63 38.00 4.55L38.00 4.55L38.00 4.55Q38.15 4.47 38.21 4.47L38.21 4.47L38.21 4.47Q38.19 4.47 38.61 4.75L38.61 4.75L38.61 4.75Q39.02 5.04 39.51 5.04L39.51 5.04L39.51 5.04Q40.03 5.04 40.25 4.93L40.25 4.93L40.25 4.93Q40.43 4.83 40.67 4.86L40.67 4.86L40.67 4.86Q40.71 5.19 40.03 5.85L40.03 5.85L40.03 7.04L40.03 7.04Q40.03 7.10 40.07 7.24L40.07 7.24L40.07 7.24Q40.11 7.38 40.11 7.42L40.11 7.42L40.11 9.59L40.11 9.59Q40.47 9.94 41.17 10.58L41.17 10.58L41.17 10.58Q41.55 10.42 41.68 10.44ZM38.14 10.39L38.14 10.39L38.14 9.37L38.14 9.37Q38.14 9.31 38.09 9.17L38.09 9.17L38.09 9.17Q38.05 9.03 38.05 8.99L38.05 8.99L38.05 7.07L38.05 7.07Q38.02 7.06 37.49 7.06L37.49 7.06L37.49 7.06Q37.24 7.06 36.86 6.79L36.86 6.79L36.86 6.79Q36.60 6.59 36.33 6.40L36.33 6.40L36.33 6.40Q35.90 6.62 35.62 7.42L35.62 7.42L35.62 7.42Q35.38 8.09 35.38 8.67L35.38 8.67L35.38 8.67Q35.38 9.31 35.85 9.95L35.85 9.95L35.85 9.95Q36.40 10.71 37.17 10.71L37.17 10.71L37.17 10.71Q37.48 10.71 38.14 10.39ZM45.88 1.85L46.09 1.85L46.09 1.85Q45.85 2.52 44.99 3.30L44.99 3.30L44.99 3.30Q44.13 4.09 43.64 4.03L43.64 4.03L43.64 4.03Q43.41 3.74 42.98 3.25L42.98 3.25L42.98 3.25Q42.56 3.57 42.39 3.57L42.39 3.57L42.39 3.57Q42.34 3.51 42.34 3.43L42.34 3.43L42.34 3.43Q42.34 3.02 43.35 2.10L43.35 2.10L43.35 2.10Q44.37 1.18 44.69 1.18L44.69 1.18L44.69 1.18Q44.83 1.18 45.15 1.53L45.15 1.53L45.15 1.53Q45.36 1.76 45.57 2.00L45.57 2.00L45.57 2.00Q45.67 1.96 45.88 1.85L45.88 1.85ZM46.13 9.34L46.13 9.34L46.13 9.34Q46.13 10.02 45.19 11.32L45.19 11.32L45.19 11.32Q44.25 12.61 43.72 12.60L43.72 12.60L43.55 12.60L43.55 12.60Q43.65 12.31 43.93 11.80L43.93 11.80L43.93 11.80Q44.14 11.44 44.14 11.14L44.14 11.14L44.14 11.14Q44.14 11.10 44.10 10.91L44.10 10.91L44.10 10.91Q44.06 10.72 44.06 10.67L44.06 10.67L44.06 8.53L44.06 8.53Q44.06 8.05 43.92 7.57L43.92 7.57L43.92 7.57Q43.72 6.93 43.36 6.93L43.36 6.93L43.36 6.93Q43.32 6.93 43.16 7.05L43.16 7.05L43.16 7.05Q42.99 7.17 42.94 7.17L42.94 7.17L42.69 7.17L42.69 7.17Q42.87 6.52 43.89 5.63L43.89 5.63L43.89 5.63Q44.84 4.79 45.18 4.82L45.18 4.82L45.18 4.82Q45.44 4.96 45.81 5.29L45.81 5.29L45.81 5.29Q46.06 5.80 46.06 6.64L46.06 6.64L46.06 8.76L46.06 8.76Q46.06 8.79 46.10 9.04L46.10 9.04L46.10 9.04Q46.13 9.28 46.13 9.34ZM53.75 4.42L53.75 4.42L53.75 4.42Q53.75 4.94 52.61 5.91L52.61 5.91L52.61 5.91Q51.48 6.87 50.93 6.87L50.93 6.87L50.93 6.87Q50.02 6.87 49.59 6.43L49.59 6.43L49.59 6.43Q49.46 7.34 49.43 7.85L49.43 7.85L49.43 7.85Q49.34 9.74 48.20 11.70L48.20 11.70L48.20 11.70Q47.01 13.76 45.12 15.11L45.12 15.11L45.12 15.11Q45.02 15.01 45.02 14.99L45.02 14.99L45.02 14.99Q45.02 14.92 45.88 13.65L45.88 13.65L45.88 13.65Q46.87 12.14 47.07 11.83L47.07 11.83L47.07 11.83Q47.14 11.72 47.38 10.51L47.38 10.51L47.38 10.51Q47.63 9.20 47.63 8.68L47.63 8.68L47.63 5.22L47.63 5.22Q47.63 5.29 47.57 4.75L47.57 4.75L47.57 4.75Q47.53 4.27 47.57 4.02L47.57 4.02L47.57 4.02Q47.60 3.81 48.01 3.35L48.01 3.35L48.01 3.35Q48.37 2.93 48.73 2.52L48.73 2.52L48.73 2.52Q49.91 1.13 50.78 0.73L50.78 0.73L50.95 0.73L50.95 0.73Q50.97 1.01 51.39 1.20L51.39 1.20L51.39 1.20Q51.74 1.36 52.11 1.36L52.11 1.36L52.11 1.36Q52.53 1.36 52.79 1.26L52.79 1.26L52.79 1.26Q53.14 1.11 53.49 0.95L53.49 0.95L53.66 0.95L53.66 1.12L53.66 1.12Q53.66 1.41 52.84 2.17L52.84 2.17L52.84 2.17Q52.08 2.86 51.83 2.95L51.83 2.95L51.83 2.95Q50.97 3.26 50.39 3.26L50.39 3.26L50.39 3.26Q49.92 3.26 49.52 3.04L49.52 3.04L49.52 3.04Q49.49 3.25 49.57 3.79L49.57 3.79L49.60 5.31L49.60 5.31Q50.78 4.21 51.09 4.23L51.09 4.23L51.09 4.23Q51.76 4.93 52.33 4.93L52.33 4.93L52.33 4.93Q52.71 4.93 52.85 4.86L52.85 4.86L52.85 4.86Q53.34 4.59 53.75 4.42ZM62.30 10.44L62.30 10.44L62.30 10.44Q62.19 10.77 61.38 11.68L61.38 11.68L61.38 11.68Q60.49 12.68 60.09 12.68L60.09 12.68L60.09 12.68Q60.03 12.68 59.42 12.11L59.42 12.11L59.42 12.11Q58.76 11.51 58.73 11.28L58.73 11.28L58.73 11.28Q58.37 11.76 57.46 12.22L57.46 12.22L57.46 12.22Q56.55 12.68 56.03 12.68L56.03 12.68L56.03 12.68Q55.15 12.68 54.54 11.89L54.54 11.89L54.54 11.89Q54.03 11.20 54.03 10.46L54.03 10.46L54.03 10.46Q54.03 8.64 55.66 6.72L55.66 6.72L55.66 6.72Q57.12 5.01 58.42 4.65L58.42 4.65L58.42 4.65Q58.46 4.63 58.62 4.55L58.62 4.55L58.62 4.55Q58.77 4.47 58.83 4.47L58.83 4.47L58.83 4.47Q58.81 4.47 59.23 4.75L59.23 4.75L59.23 4.75Q59.64 5.04 60.13 5.04L60.13 5.04L60.13 5.04Q60.65 5.04 60.87 4.93L60.87 4.93L60.87 4.93Q61.05 4.83 61.29 4.86L61.29 4.86L61.29 4.86Q61.33 5.19 60.65 5.85L60.65 5.85L60.65 7.04L60.65 7.04Q60.65 7.10 60.69 7.24L60.69 7.24L60.69 7.24Q60.73 7.38 60.73 7.42L60.73 7.42L60.73 9.59L60.73 9.59Q61.10 9.94 61.80 10.58L61.80 10.58L61.80 10.58Q62.17 10.42 62.30 10.44ZM58.76 10.39L58.76 10.39L58.76 9.37L58.76 9.37Q58.76 9.31 58.72 9.17L58.72 9.17L58.72 9.17Q58.67 9.03 58.67 8.99L58.67 8.99L58.67 7.07L58.67 7.07Q58.65 7.06 58.11 7.06L58.11 7.06L58.11 7.06Q57.86 7.06 57.48 6.79L57.48 6.79L57.48 6.79Q57.22 6.59 56.95 6.40L56.95 6.40L56.95 6.40Q56.52 6.62 56.24 7.42L56.24 7.42L56.24 7.42Q56.00 8.09 56.00 8.67L56.00 8.67L56.00 8.67Q56.00 9.31 56.48 9.95L56.48 9.95L56.48 9.95Q57.02 10.71 57.79 10.71L57.79 10.71L57.79 10.71Q58.10 10.71 58.76 10.39Z"></path></g><!----><!----></svg>